<?xml version="1.0" standalone="no"?>
<!DOCTYPE svg PUBLIC "-//W3C//DTD SVG 20010904//EN"
 "http://www.w3.org/TR/2001/REC-SVG-20010904/DTD/svg10.dtd">
<svg version="1.0" xmlns="http://www.w3.org/2000/svg"
 width="1101.000000pt" height="1101.000000pt" viewBox="0 0 1101.000000 1101.000000"
 preserveAspectRatio="xMidYMid meet">
<metadata>
Created by potrace 1.11, written by Peter Selinger 2001-2013
</metadata>
<g transform="translate(0.000000,1101.000000) scale(0.100000,-0.100000)"
fill="#000000" stroke="none">
<path d="M5617 10973 c-33 -56 -45 -89 -52 -143 -4 -36 -8 -72 -10 -80 -3 -16
-15 -141 -21 -220 -4 -57 -13 -271 -19 -470 -9 -273 -14 -361 -30 -495 -3 -22
-8 -58 -10 -80 -3 -22 -7 -51 -10 -65 -8 -39 -15 -72 -21 -105 -9 -49 -51
-191 -65 -216 -7 -13 -12 -26 -12 -29 2 -29 -88 -222 -173 -368 -23 -39 -41
-37 -123 11 -49 29 -189 158 -236 217 -23 29 -83 147 -90 176 -2 10 -8 34 -14
52 -5 17 -8 32 -5 32 3 0 0 9 -6 20 -17 32 -14 230 5 340 3 14 7 39 10 55 26
142 100 310 167 377 27 27 18 32 -32 18 -67 -18 -113 -69 -174 -193 -56 -114
-91 -223 -102 -313 -3 -27 -9 -76 -12 -109 -17 -146 -2 -324 38 -445 82 -251
240 -448 425 -530 98 -43 110 -48 150 -61 22 -6 47 -14 55 -17 59 -20 130 -27
260 -26 111 1 137 5 225 33 55 17 105 33 110 35 42 13 172 70 213 92 150 84
301 223 393 364 27 41 53 80 58 86 5 6 34 62 65 125 117 239 142 458 79 704
-8 33 -22 75 -30 93 -8 18 -20 45 -26 60 -50 116 -167 213 -271 226 l-37 5 45
-50 c25 -28 51 -62 59 -77 8 -15 33 -62 55 -105 23 -43 43 -92 46 -110 3 -17
8 -43 11 -57 3 -14 6 -83 7 -155 1 -157 -12 -216 -81 -359 -59 -123 -95 -174
-197 -279 -154 -157 -252 -215 -354 -208 -13 1 -75 135 -84 183 -1 7 -8 31
-14 53 -12 43 -14 52 -38 165 -18 87 -20 98 -28 165 -4 28 -9 57 -11 65 -2 8
-7 42 -10 75 -4 33 -8 71 -10 85 -10 66 -21 187 -30 335 -2 39 -7 115 -11 170
-4 55 -7 290 -8 522 -1 232 -4 424 -7 428 -4 3 -9 3 -12 -2z"/>
<path d="M8619 8722 c-26 -20 -82 -64 -125 -97 -137 -105 -358 -276 -374 -288
-8 -7 -62 -48 -120 -92 -58 -43 -106 -83 -108 -87 -2 -4 -8 -8 -14 -8 -5 0
-15 -6 -22 -12 -7 -7 -25 -22 -40 -33 -15 -11 -58 -43 -94 -70 -255 -192 -790
-565 -811 -565 -5 0 -11 -3 -13 -8 -6 -14 -400 -262 -417 -262 -5 0 -11 -4
-13 -8 -3 -7 -112 -72 -121 -72 -2 0 -3 24 -2 54 1 49 -3 102 -20 276 -8 90
-21 158 -42 230 -61 204 -240 392 -428 448 -126 37 -191 46 -355 46 -146 0
-217 -18 -352 -87 -144 -75 -189 -108 -306 -227 -152 -154 -213 -272 -238
-455 -3 -27 -8 -52 -9 -55 -3 -5 -17 -189 -18 -227 0 -7 -3 -13 -7 -13 -13 0
-60 25 -60 33 0 4 -4 7 -10 7 -11 0 -157 86 -182 108 -10 8 -18 12 -18 8 0 -4
-14 4 -31 18 -17 14 -35 26 -39 26 -5 0 -46 25 -90 55 -44 30 -83 55 -85 55
-16 0 -732 503 -755 530 -3 3 -43 35 -90 70 -47 35 -119 91 -160 123 -92 73
-92 72 -326 255 -105 82 -199 154 -210 160 -16 8 -32 2 -89 -33 -231 -146
-270 -189 -391 -435 -119 -244 -145 -336 -146 -521 0 -63 2 -124 5 -135 3 -10
9 -44 12 -74 4 -30 9 -58 11 -61 2 -3 6 -20 9 -38 10 -57 66 -154 80 -140 2 2
-5 42 -15 88 -22 100 -20 288 5 421 3 19 8 46 10 60 10 59 33 139 55 187 31
66 78 90 167 84 25 -1 96 -59 88 -71 -3 -5 -1 -11 4 -14 5 -3 2 -31 -5 -63
-15 -61 -13 -106 10 -188 25 -92 47 -127 98 -160 31 -19 32 -18 19 17 -21 56
-32 244 -18 320 18 98 107 219 200 270 l42 24 120 -80 c151 -100 324 -228 635
-470 135 -105 252 -196 260 -203 60 -49 311 -246 425 -333 75 -58 142 -110
149 -116 6 -6 16 -13 21 -15 20 -8 250 -164 253 -171 2 -5 9 -8 16 -8 7 0 21
-8 32 -17 22 -20 52 -40 74 -50 8 -4 21 -12 30 -19 8 -7 51 -41 95 -76 99 -78
114 -90 129 -103 6 -6 34 -28 61 -50 28 -22 52 -43 55 -46 3 -3 25 -20 49 -38
l44 -31 -64 -63 c-36 -34 -92 -84 -124 -112 -33 -27 -62 -52 -65 -56 -3 -3
-43 -39 -90 -79 -47 -40 -96 -82 -110 -94 -14 -12 -50 -42 -80 -67 -30 -24
-66 -54 -80 -66 -92 -78 -120 -101 -154 -128 -21 -16 -44 -35 -50 -40 -16 -16
-387 -316 -426 -345 -18 -14 -38 -30 -44 -35 -6 -6 -101 -81 -211 -168 -110
-87 -207 -163 -215 -170 -8 -7 -33 -26 -55 -42 -22 -16 -42 -32 -45 -35 -3 -3
-23 -18 -45 -35 -22 -16 -45 -34 -51 -40 -7 -5 -22 -18 -35 -27 -13 -9 -57
-42 -98 -72 -58 -43 -76 -53 -86 -43 -14 14 -61 130 -69 167 -2 14 -9 45 -14
70 -26 114 -34 279 -18 348 8 32 7 33 -14 22 -30 -16 -55 -42 -84 -89 -30 -47
-69 -158 -62 -176 2 -7 2 -15 -1 -18 -3 -3 -6 -47 -7 -97 -1 -93 -8 -109 -47
-110 -23 0 -90 51 -126 96 -59 75 -114 205 -130 312 -9 52 -9 259 -1 305 9 48
-5 40 -36 -21 -19 -38 -57 -140 -61 -162 0 -3 -6 -34 -13 -70 -44 -228 6 -457
143 -663 74 -110 279 -307 320 -307 21 0 193 88 310 158 149 90 491 319 650
436 11 8 52 37 90 65 39 28 79 57 90 65 11 8 45 33 75 55 30 22 64 47 75 55
11 9 88 66 170 127 83 61 152 115 153 120 2 5 8 9 14 9 6 0 27 14 47 30 42 35
44 37 91 70 19 13 37 27 40 30 3 3 23 19 45 35 22 16 63 48 91 70 28 22 64 49
79 60 15 11 91 68 169 126 77 59 142 106 143 105 1 -1 -5 -26 -13 -56 -21 -76
-71 -272 -89 -350 -22 -92 -23 -96 -45 -186 -11 -45 -22 -92 -24 -105 -3 -13
-5 -24 -6 -24 -1 0 -3 -8 -5 -19 -2 -10 -9 -39 -15 -65 -6 -25 -12 -55 -15
-66 -2 -11 -22 -103 -45 -205 -23 -102 -43 -192 -45 -200 -2 -8 -10 -45 -19
-81 -8 -37 -17 -78 -20 -90 -7 -34 -15 -70 -22 -104 -4 -16 -8 -39 -10 -50 -2
-11 -11 -51 -20 -90 -9 -38 -17 -79 -19 -90 -2 -11 -12 -59 -24 -106 -21 -90
-49 -217 -57 -259 -2 -14 -9 -45 -14 -70 -6 -25 -12 -54 -14 -65 -3 -11 -16
-74 -31 -140 -15 -66 -29 -131 -31 -145 -3 -13 -12 -56 -21 -95 -8 -38 -17
-79 -18 -90 -2 -11 -7 -31 -10 -45 -3 -14 -8 -36 -11 -50 -3 -13 -12 -56 -20
-95 -9 -38 -17 -79 -20 -90 -8 -41 -13 -61 -23 -105 -5 -25 -12 -56 -14 -70
-3 -14 -10 -43 -15 -65 -6 -22 -13 -57 -16 -79 -4 -21 -8 -42 -11 -46 -3 -5
-8 -23 -10 -42 -6 -35 -11 -60 -19 -93 -18 -78 -46 -206 -51 -235 -3 -19 -10
-48 -15 -65 -5 -16 -14 -55 -19 -85 -6 -30 -13 -64 -16 -75 -2 -11 -20 -92
-40 -180 -19 -88 -37 -167 -39 -175 -8 -29 -25 -105 -30 -135 -3 -16 -14 -66
-25 -110 -11 -44 -22 -92 -25 -108 -3 -15 -7 -35 -10 -45 -3 -9 -8 -28 -10
-42 -3 -14 -10 -45 -17 -70 -13 -56 -19 -79 -25 -107 -2 -12 -9 -34 -14 -48
-5 -14 -8 -25 -5 -25 2 0 -5 -29 -15 -65 -10 -36 -19 -68 -19 -70 -1 -3 -1 -6
-2 -7 0 -2 -2 -10 -4 -18 -7 -34 -46 -176 -52 -190 -9 -22 -12 -40 -7 -40 6 0
99 197 144 305 19 44 40 89 46 100 7 11 13 22 13 25 -1 12 105 252 134 305 6
11 12 22 12 25 4 18 122 239 175 325 100 164 212 289 297 330 l41 20 -24 40
c-56 90 -106 228 -121 335 -15 100 -5 393 15 424 3 5 6 19 7 30 4 32 35 137
51 173 8 17 14 35 14 40 0 14 80 164 118 223 42 64 163 188 210 215 38 23 40
30 10 46 -62 33 -87 88 -90 199 -2 64 13 233 25 285 3 11 8 42 11 69 4 28 14
80 21 118 8 37 17 82 20 100 3 18 12 61 20 94 8 34 16 73 19 85 2 13 10 47 16
74 6 28 14 60 16 73 6 30 55 241 94 402 17 69 33 136 36 150 5 27 50 219 61
260 3 14 7 30 8 35 2 6 8 30 15 55 7 25 14 53 16 64 14 76 129 524 133 520 3
-2 6 -11 7 -18 3 -25 126 -449 156 -541 16 -49 31 -98 33 -108 2 -10 23 -73
45 -140 23 -67 43 -126 44 -132 1 -5 9 -30 19 -55 9 -25 51 -142 93 -260 42
-118 86 -240 97 -270 11 -30 33 -91 49 -135 16 -44 30 -84 32 -90 6 -24 28
-92 36 -110 8 -19 43 -124 45 -135 0 -3 7 -28 14 -56 7 -29 14 -60 16 -70 2
-11 4 -19 5 -19 1 0 4 -11 6 -25 2 -14 7 -46 12 -72 14 -73 6 -196 -17 -262
-21 -61 -66 -135 -87 -143 -6 -2 21 -38 62 -80 41 -41 74 -79 74 -83 0 -5 6
-15 13 -22 20 -21 70 -96 125 -188 200 -339 304 -698 266 -915 -10 -57 -37
-145 -44 -145 -4 0 -10 -10 -14 -23 -3 -12 -22 -40 -43 -62 l-38 -40 104 -185
c57 -102 115 -205 129 -230 14 -25 25 -47 25 -50 -1 -3 2 -9 7 -15 9 -11 39
-65 92 -165 19 -36 49 -92 67 -124 18 -32 44 -82 58 -110 15 -28 35 -63 45
-79 11 -15 16 -27 12 -27 -3 0 -2 -6 4 -12 11 -15 28 -44 97 -173 27 -49 59
-107 72 -127 13 -21 23 -40 23 -44 0 -13 113 -197 138 -222 16 -18 16 -14 -9
71 -29 100 -60 209 -64 227 -2 8 -8 27 -14 43 -6 15 -8 27 -6 27 2 0 0 12 -6
28 -6 15 -12 34 -14 42 -2 8 -28 103 -59 210 -59 210 -175 632 -182 665 -11
44 -13 50 -15 50 -1 0 -3 9 -5 20 -1 11 -16 67 -33 125 -44 154 -81 291 -87
320 -2 14 -7 32 -10 40 -3 8 -14 47 -24 85 -11 39 -26 97 -35 130 -9 33 -18
68 -21 77 -10 42 -15 59 -44 168 -18 63 -34 122 -36 130 -12 51 -76 290 -85
316 -5 17 -11 40 -13 50 -2 11 -9 37 -15 59 -6 22 -10 42 -11 45 0 3 -7 30
-16 60 -9 30 -18 62 -19 70 -2 8 -4 15 -5 15 -1 0 -3 7 -5 15 -2 14 -52 202
-97 370 -11 41 -21 80 -22 85 -2 6 -8 30 -15 55 -7 25 -15 52 -16 60 -2 8 -18
67 -35 130 -17 63 -33 123 -35 132 -2 10 -16 62 -31 115 -14 54 -28 105 -29
113 -2 8 -4 16 -5 18 -2 1 -3 10 -5 20 -1 9 -5 24 -8 32 -5 13 -29 99 -41 150
-2 8 -14 51 -25 95 -31 115 -31 113 -35 133 -3 9 -12 44 -21 77 -9 33 -27 101
-40 150 -13 50 -36 133 -50 185 -15 52 -29 104 -32 115 -3 11 -20 79 -39 150
-54 205 -66 249 -72 265 -3 8 -7 20 -7 25 -1 6 -5 18 -9 27 -5 10 -6 22 -4 28
3 10 107 -50 268 -154 73 -47 647 -413 685 -436 140 -86 351 -225 353 -231 2
-5 8 -9 12 -9 8 0 139 -78 150 -90 3 -3 14 -10 25 -16 11 -6 90 -56 175 -111
85 -54 218 -137 295 -184 77 -46 142 -87 143 -91 2 -5 8 -8 13 -8 6 0 35 -16
65 -35 30 -19 56 -35 59 -35 2 0 39 -20 81 -45 l77 -46 30 28 c81 74 165 166
228 250 38 50 69 94 69 97 0 3 15 29 33 58 58 92 160 343 172 423 2 11 4 20 5
20 2 0 3 4 15 60 24 112 30 180 29 335 0 101 -4 165 -12 184 -7 16 -15 27 -17
24 -2 -2 -7 -35 -9 -73 -7 -94 -17 -195 -22 -220 -2 -11 -7 -33 -9 -50 -24
-133 -86 -279 -149 -349 -39 -43 -38 -44 -56 44 -15 73 -62 212 -77 227 -18
19 -21 -3 -8 -54 25 -96 -3 -262 -57 -351 -31 -51 -97 -119 -158 -167 -58 -44
-180 -115 -197 -115 -16 0 -405 263 -498 337 -5 4 -27 19 -47 33 -21 14 -38
28 -38 33 0 4 -6 7 -14 7 -8 0 -16 3 -18 8 -5 11 -127 102 -137 102 -5 0 -11
3 -13 8 -5 11 -177 142 -187 142 -5 0 -11 4 -13 8 -1 4 -70 59 -153 122 -82
63 -156 120 -163 127 -7 7 -17 13 -21 13 -4 0 -18 10 -31 23 -13 12 -54 45
-91 72 -71 53 -229 174 -319 244 -30 23 -89 67 -130 98 -41 30 -79 60 -85 67
-5 6 -28 23 -51 39 -22 15 -49 35 -60 45 -10 9 -43 34 -71 56 -29 21 -53 41
-53 44 1 4 75 66 167 137 91 72 175 138 187 149 34 30 621 468 866 646 193
141 519 383 557 415 33 27 43 35 87 68 26 20 53 42 61 49 7 7 28 24 46 38 18
14 37 30 43 35 6 6 34 28 61 49 53 42 68 54 100 83 12 10 48 40 80 67 33 28
67 57 76 65 9 9 38 35 65 58 27 23 62 53 78 67 16 14 33 26 38 26 4 0 8 5 8
11 0 13 30 38 46 39 13 0 49 -71 64 -128 12 -47 15 -164 5 -225 -4 -20 -17
-68 -30 -106 -22 -67 -23 -70 -4 -68 10 1 19 5 19 9 0 4 6 8 13 8 25 0 96 80
127 144 26 52 32 75 31 127 0 35 -3 75 -6 89 -21 105 -20 115 23 158 60 60
136 68 198 19 48 -38 129 -240 140 -351 5 -49 5 -319 0 -361 -2 -16 -7 -54
-10 -82 -4 -29 -13 -74 -21 -100 l-14 -48 20 25 c11 14 27 33 35 44 35 42 111
213 129 291 12 51 17 122 17 260 1 128 -3 182 -17 240 -8 38 -18 74 -25 95
-14 44 -17 55 -18 64 0 5 -4 12 -9 15 -4 3 -17 23 -27 43 -23 44 -116 142
-206 218 -36 30 -67 57 -70 60 -17 18 -73 60 -78 59 -4 0 -28 -17 -53 -37z
m-2944 -768 c17 -3 40 -7 53 -9 34 -5 151 -72 207 -118 121 -101 192 -213 221
-348 17 -83 23 -266 9 -335 -3 -16 -8 -45 -11 -64 -16 -97 -73 -192 -178 -295
-84 -84 -156 -131 -241 -159 -142 -46 -367 -43 -505 7 -127 45 -289 206 -355
350 -33 70 -39 112 -39 242 2 220 25 308 119 440 95 133 261 250 384 271 14 2
55 10 91 17 62 13 181 13 245 1z"/>
</g>
</svg>
